<?xml version="1.0" encoding="utf-8"?>
<!-- Generator: Adobe Illustrator 18.0.0, SVG Export Plug-In . SVG Version: 6.00 Build 0)  -->
<!DOCTYPE svg PUBLIC "-//W3C//DTD SVG 1.1//EN" "http://www.w3.org/Graphics/SVG/1.1/DTD/svg11.dtd">
<svg version="1.1" id="Layer_1" xmlns="http://www.w3.org/2000/svg" xmlns:xlink="http://www.w3.org/1999/xlink" x="0px" y="0px"
	 viewBox="0 0 100 100" enable-background="new 0 0 100 100" xml:space="preserve">
<path fill="#50AFC6" d="M99,49.7c0,8.1-1.9,15.7-5.4,22.4c-0.1,0.2-0.3,0.5-0.4,0.7L89.6,71c0.1-0.2,0.3-0.5,0.4-0.7
	c3.2-6.2,4.9-13.1,4.9-20.5c0-10.7-3.8-20.6-10-28.3l-5.9,4.8c-0.2-0.2-0.4-0.4-0.5-0.7C72.2,18.1,63,13.1,52.6,12.3L52,21.9
	c-0.3,0-0.6,0-0.9-0.1c-0.4,0-0.9,0-1.3,0C34.4,21.8,22,34.3,22,49.7c0,15.4,12.5,27.9,27.9,27.9c9.2,0,17.3-4.4,22.4-11.3
	c0.2-0.2,0.3-0.5,0.5-0.7l7.8,5.6l6.2,4.4l3.2,2.3c-0.2,0.2-0.3,0.5-0.5,0.7c-8.9,12.2-23.4,20.2-39.7,20.2
	c-27.1,0-49.1-22-49.1-49.1c0-27.1,22-49.1,49.1-49.1c0.9,0,1.8,0,2.6,0.1c0.3,0,0.6,0,0.9,0.1c13.7,1,25.8,7.6,34.2,17.5
	c0.2,0.2,0.4,0.4,0.5,0.7C94.9,27.3,99,38,99,49.7z"/>
</svg>
